<mxfile host="app.diagrams.net" agent="Mozilla/5.0 (Windows NT 10.0; Win64; x64) AppleWebKit/537.36 (KHTML, like Gecko) Chrome/134.0.0.0 Safari/537.36" version="26.2.5">
  <diagram name="Página-1" id="bcRePJ3cq4D1uXxZdJab">
    <mxGraphModel dx="985" dy="506" grid="1" gridSize="10" guides="1" tooltips="1" connect="1" arrows="1" fold="1" page="1" pageScale="1" pageWidth="827" pageHeight="1169" math="0" shadow="0" adaptiveColors="auto">
      <root>
        <mxCell id="0" />
        <mxCell id="1" parent="0" />
        <mxCell id="OJFURiLDdNp6raRzqcyB-1" value="Interfaz" style="rounded=0;whiteSpace=wrap;html=1;labelBackgroundColor=none;fillColor=#F2CC8F;strokeColor=#E07A5F;fontColor=#393C56;" parent="1" vertex="1">
          <mxGeometry x="354" y="200" width="120" height="60" as="geometry" />
        </mxCell>
        <mxCell id="OJFURiLDdNp6raRzqcyB-2" value="Cliente" style="shape=umlActor;verticalLabelPosition=bottom;verticalAlign=top;html=1;outlineConnect=0;labelBackgroundColor=none;fillColor=#F2CC8F;strokeColor=#E07A5F;fontColor=#393C56;rounded=0;" parent="1" vertex="1">
          <mxGeometry x="80" y="40" width="30" height="60" as="geometry" />
        </mxCell>
        <mxCell id="OJFURiLDdNp6raRzqcyB-3" value="Carrito" style="rounded=0;whiteSpace=wrap;html=1;labelBackgroundColor=none;fillColor=#F2CC8F;strokeColor=#E07A5F;fontColor=#393C56;" parent="1" vertex="1">
          <mxGeometry x="560" y="350" width="120" height="60" as="geometry" />
        </mxCell>
        <mxCell id="OJFURiLDdNp6raRzqcyB-4" value="Cajero" style="rounded=0;whiteSpace=wrap;html=1;labelBackgroundColor=none;fillColor=#F2CC8F;strokeColor=#E07A5F;fontColor=#393C56;" parent="1" vertex="1">
          <mxGeometry x="80" y="360" width="120" height="60" as="geometry" />
        </mxCell>
        <mxCell id="OJFURiLDdNp6raRzqcyB-5" value="Base de datos" style="rounded=0;whiteSpace=wrap;html=1;labelBackgroundColor=none;fillColor=#F2CC8F;strokeColor=#E07A5F;fontColor=#393C56;" parent="1" vertex="1">
          <mxGeometry x="560" y="40" width="120" height="60" as="geometry" />
        </mxCell>
        <mxCell id="OJFURiLDdNp6raRzqcyB-6" value="" style="endArrow=none;html=1;rounded=0;entryX=0.25;entryY=0;entryDx=0;entryDy=0;labelBackgroundColor=none;strokeColor=#E07A5F;fontColor=default;" parent="1" source="OJFURiLDdNp6raRzqcyB-2" target="OJFURiLDdNp6raRzqcyB-1" edge="1">
          <mxGeometry width="50" height="50" relative="1" as="geometry">
            <mxPoint x="80" y="110" as="sourcePoint" />
            <mxPoint x="210" y="240" as="targetPoint" />
          </mxGeometry>
        </mxCell>
        <mxCell id="OJFURiLDdNp6raRzqcyB-9" value="" style="endArrow=none;html=1;rounded=0;entryX=0.25;entryY=1;entryDx=0;entryDy=0;exitX=0.5;exitY=0;exitDx=0;exitDy=0;labelBackgroundColor=none;strokeColor=#E07A5F;fontColor=default;" parent="1" source="OJFURiLDdNp6raRzqcyB-4" target="OJFURiLDdNp6raRzqcyB-1" edge="1">
          <mxGeometry width="50" height="50" relative="1" as="geometry">
            <mxPoint x="90" y="237" as="sourcePoint" />
            <mxPoint x="364" y="360" as="targetPoint" />
          </mxGeometry>
        </mxCell>
        <mxCell id="OJFURiLDdNp6raRzqcyB-10" value="" style="endArrow=none;html=1;rounded=0;entryX=0.75;entryY=1;entryDx=0;entryDy=0;exitX=0.25;exitY=0;exitDx=0;exitDy=0;labelBackgroundColor=none;strokeColor=#E07A5F;fontColor=default;" parent="1" source="OJFURiLDdNp6raRzqcyB-3" target="OJFURiLDdNp6raRzqcyB-1" edge="1">
          <mxGeometry width="50" height="50" relative="1" as="geometry">
            <mxPoint x="150" y="370" as="sourcePoint" />
            <mxPoint x="394" y="270" as="targetPoint" />
          </mxGeometry>
        </mxCell>
        <mxCell id="OJFURiLDdNp6raRzqcyB-11" value="" style="endArrow=none;html=1;rounded=0;entryX=0.75;entryY=0;entryDx=0;entryDy=0;exitX=0.25;exitY=1;exitDx=0;exitDy=0;labelBackgroundColor=none;strokeColor=#E07A5F;fontColor=default;" parent="1" source="OJFURiLDdNp6raRzqcyB-5" target="OJFURiLDdNp6raRzqcyB-1" edge="1">
          <mxGeometry width="50" height="50" relative="1" as="geometry">
            <mxPoint x="120" y="87" as="sourcePoint" />
            <mxPoint x="394" y="210" as="targetPoint" />
          </mxGeometry>
        </mxCell>
        <mxCell id="OJFURiLDdNp6raRzqcyB-12" value="" style="endArrow=classic;html=1;rounded=0;labelBackgroundColor=none;strokeColor=#E07A5F;fontColor=default;" parent="1" edge="1">
          <mxGeometry width="50" height="50" relative="1" as="geometry">
            <mxPoint x="150" y="80" as="sourcePoint" />
            <mxPoint x="340" y="169" as="targetPoint" />
          </mxGeometry>
        </mxCell>
        <mxCell id="OJFURiLDdNp6raRzqcyB-14" value="" style="endArrow=classic;html=1;rounded=0;labelBackgroundColor=none;strokeColor=#E07A5F;fontColor=default;" parent="1" edge="1">
          <mxGeometry width="50" height="50" relative="1" as="geometry">
            <mxPoint x="330" y="189" as="sourcePoint" />
            <mxPoint x="140" y="100" as="targetPoint" />
          </mxGeometry>
        </mxCell>
        <mxCell id="OJFURiLDdNp6raRzqcyB-15" value="" style="endArrow=classic;html=1;rounded=0;labelBackgroundColor=none;strokeColor=#E07A5F;fontColor=default;" parent="1" edge="1">
          <mxGeometry width="50" height="50" relative="1" as="geometry">
            <mxPoint x="484" y="189" as="sourcePoint" />
            <mxPoint x="584" y="119" as="targetPoint" />
          </mxGeometry>
        </mxCell>
        <mxCell id="OJFURiLDdNp6raRzqcyB-17" value="" style="endArrow=classic;html=1;rounded=0;labelBackgroundColor=none;strokeColor=#E07A5F;fontColor=default;" parent="1" edge="1">
          <mxGeometry width="50" height="50" relative="1" as="geometry">
            <mxPoint x="200" y="347" as="sourcePoint" />
            <mxPoint x="370" y="278" as="targetPoint" />
          </mxGeometry>
        </mxCell>
        <mxCell id="OJFURiLDdNp6raRzqcyB-18" value="" style="endArrow=classic;html=1;rounded=0;labelBackgroundColor=none;strokeColor=#E07A5F;fontColor=default;" parent="1" edge="1">
          <mxGeometry width="50" height="50" relative="1" as="geometry">
            <mxPoint x="340" y="266.9999999999998" as="sourcePoint" />
            <mxPoint x="170" y="335.9999999999998" as="targetPoint" />
          </mxGeometry>
        </mxCell>
        <mxCell id="OJFURiLDdNp6raRzqcyB-20" value="" style="endArrow=classic;html=1;rounded=0;labelBackgroundColor=none;strokeColor=#E07A5F;fontColor=default;" parent="1" edge="1">
          <mxGeometry width="50" height="50" relative="1" as="geometry">
            <mxPoint x="560" y="342" as="sourcePoint" />
            <mxPoint x="445" y="272" as="targetPoint" />
          </mxGeometry>
        </mxCell>
        <mxCell id="OJFURiLDdNp6raRzqcyB-22" value="1. Actualizar ubicación&lt;div&gt;6. Método de pago&lt;/div&gt;&lt;div&gt;11. Entrega de pedido&lt;/div&gt;" style="text;html=1;align=center;verticalAlign=middle;whiteSpace=wrap;rounded=0;labelBackgroundColor=none;fontColor=#393C56;" parent="1" vertex="1">
          <mxGeometry x="180" y="60" width="130" height="30" as="geometry" />
        </mxCell>
        <mxCell id="OJFURiLDdNp6raRzqcyB-23" value="" style="endArrow=classic;html=1;rounded=0;labelBackgroundColor=none;strokeColor=#E07A5F;fontColor=default;" parent="1" edge="1">
          <mxGeometry width="50" height="50" relative="1" as="geometry">
            <mxPoint x="551" y="109" as="sourcePoint" />
            <mxPoint x="451" y="179" as="targetPoint" />
          </mxGeometry>
        </mxCell>
        <mxCell id="OJFURiLDdNp6raRzqcyB-24" value="7. Realiza pago" style="text;html=1;align=center;verticalAlign=middle;whiteSpace=wrap;rounded=0;labelBackgroundColor=none;fontColor=#393C56;" parent="1" vertex="1">
          <mxGeometry x="380" y="110" width="160" height="30" as="geometry" />
        </mxCell>
        <mxCell id="OJFURiLDdNp6raRzqcyB-25" value="9. Muestra envío&lt;div&gt;10. Muestra seguimiento&lt;/div&gt;" style="text;html=1;align=center;verticalAlign=middle;whiteSpace=wrap;rounded=0;labelBackgroundColor=none;fontColor=#393C56;" parent="1" vertex="1">
          <mxGeometry x="520" y="150" width="160" height="30" as="geometry" />
        </mxCell>
        <mxCell id="OJFURiLDdNp6raRzqcyB-26" value="8. Actualizar productos" style="text;html=1;align=center;verticalAlign=middle;whiteSpace=wrap;rounded=0;labelBackgroundColor=none;fontColor=#393C56;" parent="1" vertex="1">
          <mxGeometry x="690" y="55" width="133" height="30" as="geometry" />
        </mxCell>
        <mxCell id="OJFURiLDdNp6raRzqcyB-27" value="" style="endArrow=classic;html=1;rounded=0;labelBackgroundColor=none;strokeColor=#E07A5F;fontColor=default;" parent="1" edge="1">
          <mxGeometry width="50" height="50" relative="1" as="geometry">
            <mxPoint x="469" y="266" as="sourcePoint" />
            <mxPoint x="584" y="336" as="targetPoint" />
          </mxGeometry>
        </mxCell>
        <mxCell id="OJFURiLDdNp6raRzqcyB-28" value="2. Búsqueda de productos" style="text;html=1;align=center;verticalAlign=middle;whiteSpace=wrap;rounded=0;labelBackgroundColor=none;fontColor=#393C56;" parent="1" vertex="1">
          <mxGeometry x="100" y="280" width="160" height="30" as="geometry" />
        </mxCell>
        <mxCell id="OJFURiLDdNp6raRzqcyB-29" value="3. Selecciona producto" style="text;html=1;align=center;verticalAlign=middle;whiteSpace=wrap;rounded=0;labelBackgroundColor=none;fontColor=#393C56;" parent="1" vertex="1">
          <mxGeometry x="240" y="320" width="160" height="30" as="geometry" />
        </mxCell>
        <mxCell id="OJFURiLDdNp6raRzqcyB-30" value="4. Agregar producto" style="text;html=1;align=center;verticalAlign=middle;whiteSpace=wrap;rounded=0;labelBackgroundColor=none;fontColor=#393C56;" parent="1" vertex="1">
          <mxGeometry x="663" y="365" width="160" height="30" as="geometry" />
        </mxCell>
      </root>
    </mxGraphModel>
  </diagram>
</mxfile>
